<?xml version="1.0" encoding="UTF-8"?><svg id="a" xmlns="http://www.w3.org/2000/svg" viewBox="0 0 1920 1080"><path d="M1282.55-140.36c-34.14,21.22-66.82,44.8-97.73,70.51-27.24,22.65-52.63,47.62-74.89,75.21-25.46,31.55-48.31,64.72-64.78,101.89-9.31,21.02-17.9,42.32-24.01,64.5-6,21.78-9.43,44.05-11.95,66.48-2.02,17.98-2.45,36.14-1.13,54.18,1.63,22.25,4.79,44.81,10.73,66.35,2.38,8.64,5.29,17.12,8.71,25.41,5.2,12.6,10.37,25.19,17.38,36.9s15.05,21.99,23.59,32.02c5.17,6.07,10.88,11.67,17.05,16.72,9.32,7.63,18.98,15.26,29.39,21.42,10.7,6.33,22.24,11.01,33.73,15.69,16.67,6.78,33.83,10.13,51.6,12.52,38.18,5.13,77.47,2.35,114.44-8.92,79.48-24.23,142.72-78.48,203.55-132.72,6.67-5.95,13.49-11.74,20.53-17.24l-12.14,9.38c12.03-9.29,24.75-17.71,38.78-23.67l-14.33,6.05c7.09-2.9,14.37-5.09,21.96-6.24l-15.95,2.14c6.08-.81,12.13-.91,18.22-.21l-15.95-2.14c5.76,.79,11.29,2.26,16.68,4.44l-14.33-6.05c6.14,2.63,11.78,6.04,17.12,10.05l-12.14-9.38c12.35,9.56,22.41,21.6,31.96,33.86l-9.38-12.14c21.58,27.93,39.37,58.58,53.12,91.08l-6.05-14.33c14.01,33.49,23.62,68.66,28.47,104.64l-2.14-15.95c9.46,72.32-7.99,146.73,13.1,217.77,5.33,17.95,12.67,35.93,22.45,51.93,9.52,15.57,21.38,30.88,35.71,42.37,9.19,7.36,18.44,14.8,28.98,20.16s22.36,10.43,34.13,13.69c18.61,5.14,38.86,7.25,58.18,6.35,40.56-1.89,79.3-13.16,117.16-27,7.81-1.86,14.61-5.44,20.4-10.74,6.53-4.23,11.68-9.84,15.45-16.83,4.38-6.89,6.76-14.32,7.12-22.31,1.79-7.98,1.43-15.95-1.07-23.93-4.7-14.52-13.7-28.53-27.57-35.86-13.61-7.19-31.21-11.54-46.23-6.05-27.22,9.95-54.94,19.16-83.73,23.22l15.95-2.14c-14.8,1.99-29.73,2.51-44.56,.53l15.95,2.14c-9.8-1.42-19.32-3.92-28.47-7.73l14.33,6.05c-8.14-3.52-15.76-7.96-22.79-13.38l12.14,9.38c-7.27-5.75-13.69-12.37-19.36-19.69l9.38,12.14c-7.01-9.26-12.67-19.37-17.26-30.03l6.05,14.33c-6.68-15.88-10.9-32.62-13.19-49.68l2.14,15.95c-6.33-49.43,1.71-99.3-2.11-148.87-3.73-48.38-13.72-96.09-32.31-140.98-10.11-24.42-21.03-48.23-34.86-70.79s-29.31-43.49-46.45-63.05c-19.29-22-45.31-41.58-74.4-47.93-20.83-4.54-38.44-4.12-59.25-.18-14.71,2.79-29.01,9.27-42.19,16.1-15,7.78-28.3,18.28-41.55,28.66-9.64,7.56-18.78,15.67-27.89,23.85-18.79,16.88-37.84,33.49-57.82,48.96l12.14-9.38c-26.72,20.59-55.16,39.04-86.26,52.32l14.33-6.05c-19.6,8.25-39.9,14.2-61,17.07l15.95-2.14c-18.32,2.38-36.84,2.54-55.17,.18l15.95,2.14c-15.39-2.09-30.45-5.96-44.8-11.94l14.33,6.05c-11.77-5.01-22.83-11.37-32.96-19.19l12.14,9.38c-8.89-7-16.79-14.99-23.75-23.9l9.38,12.14c-8.45-11.05-15.25-23.13-20.75-35.89l6.05,14.33c-8.18-19.39-13.29-39.88-16.16-60.7l2.14,15.95c-3.43-25.97-3.14-52.23,.35-78.18l-2.14,15.95c4.19-30.17,12.6-59.55,24.41-87.6l-6.05,14.33c13.48-31.65,31.25-61.12,52.27-88.32l-9.38,12.14c28.56-36.72,62.49-68.85,99.23-97.28l-12.14,9.38c21.45-16.52,43.82-31.8,66.81-46.09,13.04-8.1,23.46-20.91,27.57-35.86,2.5-7.98,2.86-15.95,1.07-23.93-.36-7.98-2.74-15.42-7.12-22.31-8.26-12.81-20.56-24.09-35.86-27.57s-32.37-2.57-46.23,6.05h0Z"/></svg>